name analog
datacolumns 19
datarows 24
range 0.192 0.20350000000000001
endheader
time	ground_force_vx	ground_force_vy	ground_force_vz	ground_force_px	ground_force_py	ground_force_pz	l_ground_force_vx	l_ground_force_vy	l_ground_force_vz	l_ground_force_px	l_ground_force_py	l_ground_force_pz	ground_torque_x	ground_torque_y	ground_torque_z	l_ground_torque_x	l_ground_torque_y	l_ground_torque_z
0.192	-0.0	-0.0	-0.0	-10.193735122680664	58.767845153808594	-932.9931640625	10.881718635559082	-7.949054718017578	-156.4203338623047	-0.0	-0.0	-0.0	-0.0	-0.0	-0.0	39457.16015625	14389.4345703125	2418.40673828125
0.1925	-0.0	-0.0	-0.0	-10.771099090576172	59.00432586669922	-948.1502685546876	11.50240421295166	-5.534718990325928	-132.6788787841797	-0.0	-0.0	-0.0	-0.0	-0.0	-0.0	33849.5	12478.4873046875	2824.751220703125
0.193	-0.0	-0.0	-0.0	-11.32575225830078	59.02740478515625	-961.5701904296876	12.243539810180664	-4.15160083770752	-109.63932037353516	-0.0	-0.0	-0.0	-0.0	-0.0	-0.0	28057.58984375	10691.3076171875	3231.253173828125
0.1935	-0.0	-0.0	-0.0	-11.779973030090332	58.52757263183594	-976.4027709960938	12.773667335510254	-2.6496505737304688	-90.43566131591795	-0.0	-0.0	-0.0	-0.0	-0.0	-0.0	22790.228515625	8873.412109375	3399.847412109375
0.194	-0.0	-0.0	-0.0	-12.128233909606934	58.32685089111328	-987.6146240234376	14.04438304901123	-1.913339614868164	-70.76726531982422	-0.0	-0.0	-0.0	-0.0	-0.0	-0.0	18203.037109375	7039.75830078125	3756.860107421875
0.1945	-0.0	-0.0	-0.0	-11.980905532836914	57.60491561889648	-996.5680541992188	14.784778594970703	-0.8246865272521973	-54.70319366455078	-0.0	-0.0	-0.0	-0.0	-0.0	-0.0	14081.7158203125	5445.96533203125	4232.95849609375
0.195	-0.0	-0.0	-0.0	-13.0465087890625	56.98563003540039	-1005.1123046875	15.46567153930664	-0.2363703548908233	-40.044410705566406	-0.0	-0.0	-0.0	-0.0	-0.0	-0.0	10122.697265625	4045.1611328125	4292.5908203125
0.1955	-0.0	-0.0	-0.0	-13.470787048339844	55.5909538269043	-1014.064697265625	14.96207332611084	1.1453204154968262	-27.12686920166016	-0.0	-0.0	-0.0	-0.0	-0.0	-0.0	7416.96875	2618.806640625	4242.3603515625
0.196	-0.0	-0.0	-0.0	-13.449609756469728	54.14384078979492	-1020.918701171875	-0.0	-0.0	-0.0	-0.0	-0.0	-0.0	-0.0	-0.0	-0.0	-0.0	-0.0	-0.0
0.1965	-0.0	-0.0	-0.0	-14.242159843444824	53.258392333984375	-1026.09130859375	-0.0	-0.0	-0.0	-0.0	-0.0	-0.0	-0.0	-0.0	-0.0	-0.0	-0.0	-0.0
0.197	-0.0	-0.0	-0.0	-14.636042594909668	51.75872802734375	-1029.188232421875	-0.0	-0.0	-0.0	-0.0	-0.0	-0.0	-0.0	-0.0	-0.0	-0.0	-0.0	-0.0
0.1975	-0.0	-0.0	-0.0	-15.77881908416748	49.68868255615234	-1035.2503662109375	-0.0	-0.0	-0.0	-0.0	-0.0	-0.0	-0.0	-0.0	-0.0	-0.0	-0.0	-0.0
0.198	-0.0	-0.0	-0.0	-16.127248764038086	47.69069290161133	-1038.7021484375	-0.0	-0.0	-0.0	-0.0	-0.0	-0.0	-0.0	-0.0	-0.0	-0.0	-0.0	-0.0
0.1985	-0.0	-0.0	-0.0	-17.39604949951172	45.64085388183594	-1040.516357421875	-0.0	-0.0	-0.0	-0.0	-0.0	-0.0	-0.0	-0.0	-0.0	-0.0	-0.0	-0.0
0.199	-0.0	-0.0	-0.0	-18.84263801574707	43.44462203979492	-1041.7547607421875	-0.0	-0.0	-0.0	-0.0	-0.0	-0.0	-0.0	-0.0	-0.0	-0.0	-0.0	-0.0
0.1995	-0.0	-0.0	-0.0	-19.951250076293945	40.898468017578125	-1042.53564453125	-0.0	-0.0	-0.0	-0.0	-0.0	-0.0	-0.0	-0.0	-0.0	-0.0	-0.0	-0.0
0.2	-0.0	-0.0	-0.0	-20.620954513549805	39.54862976074219	-1040.8475341796875	-0.0	-0.0	-0.0	-0.0	-0.0	-0.0	-0.0	-0.0	-0.0	-0.0	-0.0	-0.0
0.2005	-0.0	-0.0	-0.0	-21.97781562805176	37.59927749633789	-1039.9608154296875	-0.0	-0.0	-0.0	-0.0	-0.0	-0.0	-0.0	-0.0	-0.0	-0.0	-0.0	-0.0
0.201	-0.0	-0.0	-0.0	-23.28394317626953	36.30813217163086	-1036.6822509765625	-0.0	-0.0	-0.0	-0.0	-0.0	-0.0	-0.0	-0.0	-0.0	-0.0	-0.0	-0.0
0.2015	-0.0	-0.0	-0.0	-24.60764503479004	35.23140335083008	-1032.2750244140625	-0.0	-0.0	-0.0	-0.0	-0.0	-0.0	-0.0	-0.0	-0.0	-0.0	-0.0	-0.0
0.202	-0.0	-0.0	-0.0	-25.66041374206543	33.13916778564453	-1029.42138671875	-0.0	-0.0	-0.0	-0.0	-0.0	-0.0	-0.0	-0.0	-0.0	-0.0	-0.0	-0.0
0.2025	-0.0	-0.0	-0.0	-27.178726196289062	31.267749786376957	-1024.89794921875	-0.0	-0.0	-0.0	-0.0	-0.0	-0.0	-0.0	-0.0	-0.0	-0.0	-0.0	-0.0
0.203	-0.0	-0.0	-0.0	-27.67193031311035	30.345483779907227	-1021.6835327148438	-0.0	-0.0	-0.0	-0.0	-0.0	-0.0	-0.0	-0.0	-0.0	-0.0	-0.0	-0.0
0.20350000000000001	-0.0	-0.0	-0.0	-27.517240524291992	28.59446907043457	-1020.78662109375	-0.0	-0.0	-0.0	-0.0	-0.0	-0.0	-0.0	-0.0	-0.0	-0.0	-0.0	-0.0
